<svg width="48" height="48" viewBox="0 0 48 48" fill="none" xmlns="http://www.w3.org/2000/svg">
<path d="M42.2269 0H5.06723C3.72331 0 2.43445 0.541835 1.48416 1.50631C0.533867 2.47078 0 3.77889 0 5.14286L0 42.8571C0 44.2211 0.533867 45.5292 1.48416 46.4937C2.43445 47.4582 3.72331 48 5.06723 48H19.5563V31.6811H12.9056V24H19.5563V18.1457C19.5563 11.4868 23.4623 7.80857 29.4448 7.80857C32.3099 7.80857 35.3059 8.32714 35.3059 8.32714V14.8629H32.0048C28.7523 14.8629 27.7378 16.9114 27.7378 19.0125V24H34.9987L33.8375 31.6811H27.7378V48H42.2269C43.5708 48 44.8597 47.4582 45.81 46.4937C46.7603 45.5292 47.2941 44.2211 47.2941 42.8571V5.14286C47.2941 3.77889 46.7603 2.47078 45.81 1.50631C44.8597 0.541835 43.5708 0 42.2269 0V0Z" fill="#005196"/>
</svg>
