<svg width="48" height="48" viewBox="0 0 48 48" fill="none" xmlns="http://www.w3.org/2000/svg">
<path d="M42.2269 0H5.06723C2.2697 0 0 2.30357 0 5.14286V42.8571C0 45.6964 2.2697 48 5.06723 48H42.2269C45.0244 48 47.2941 45.6964 47.2941 42.8571V5.14286C47.2941 2.30357 45.0244 0 42.2269 0ZM37.0647 17.0143C37.0858 17.3143 37.0858 17.625 37.0858 17.925C37.0858 27.2143 30.1183 37.9179 17.3869 37.9179C13.4598 37.9179 9.81775 36.7607 6.7563 34.7679C7.31581 34.8321 7.8542 34.8536 8.42426 34.8536C11.6652 34.8536 14.6422 33.7393 17.0174 31.8536C13.9771 31.7893 11.4224 29.7643 10.5462 26.9786C11.6124 27.1393 12.5731 27.1393 13.671 26.85C10.5039 26.1964 8.12868 23.3679 8.12868 19.95V19.8643C9.04711 20.3893 10.1239 20.7107 11.2535 20.7536C10.3038 20.1125 9.52531 19.2427 8.98743 18.222C8.44956 17.2012 8.16904 16.0611 8.1709 14.9036C8.1709 13.5964 8.50872 12.3964 9.11045 11.3571C12.5203 15.6214 17.6403 18.4071 23.3831 18.7071C22.4014 13.9393 25.9168 10.0714 30.1394 10.0714C32.1347 10.0714 33.9293 10.9179 35.1961 12.2893C36.7585 11.9893 38.2576 11.4 39.5877 10.5964C39.0704 12.225 37.9831 13.5964 36.5474 14.4643C37.9409 14.3143 39.2921 13.9179 40.5378 13.3714C39.5983 14.775 38.4159 16.0179 37.0647 17.0143Z" fill="#005196"/>
</svg>
