<svg width="24" height="25" viewBox="0 0 24 25" fill="none" xmlns="http://www.w3.org/2000/svg">
<path fill-rule="evenodd" clip-rule="evenodd" d="M18 10C18 14.4183 14.4183 18 10 18C5.58172 18 2 14.4183 2 10C2 5.58172 5.58172 2 10 2C14.4183 2 18 5.58172 18 10ZM16.0336 17.9754C14.3566 19.2461 12.2663 20 10 20C4.47715 20 0 15.5228 0 10C0 4.47715 4.47715 0 10 0C15.5228 0 20 4.47715 20 10C20 12.4557 19.1148 14.7047 17.6462 16.4452L23.8705 22.6695L22.2991 24.2409L16.0336 17.9754Z" fill="#CBCBCB"/>
</svg>
